<svg id="e2uMA7yYojk1" xmlns="http://www.w3.org/2000/svg" xmlns:xlink="http://www.w3.org/1999/xlink" viewBox="0 0 139 72" shape-rendering="geometricPrecision" text-rendering="geometricPrecision" project-id="498aeb2ef8454f28b209ebebb6d78d4a" export-id="07f747cdcb6f4c3ba3ae610a855bc7fb" cached="false"><path d="M0,0h139v72L0,72L0,0ZM23,7L21,8l-5,5-3,6-3,9q1,3-1,5v7L8,41v9l3,9l6,4h6l4-2l4-5v-2l2-2h4l1,6q2,0,2,3l5,2h5l3-1l4-3l7,4q5,1,8-1l6-7v-3h6v3l2,4l6,4h6l4-2l4-5l1-3v-9l-1-3-4-5h-4v-1l3-3l3-6l1-6l1-1v-5l-1-3-3-4q-5-1-6,1l-5,5-3,6-3,9v4l-1,1v7l-1,1v4q-3-1-3,1l-3-6-5-5h-6l-3,1-7,8-1,3v6l-3,3h-7l-1-2v-2l3-3l6-10l6-18v-6q-2-1-1-4L55,7q-5-1-6,1l-5,5-3,6-2,6v3l-1,1v4l-1,1v7q-2,1-1,4-3-1-3,1l-2-5-4-5q-3,1-4-1l6-9l1-6l1-1v-5l-1-3-3-4h-4ZM123,35l-3,3-5,11-6,7-1,3q1,2,4,1q5-4,9-11l3,5v2h-4q-4,1-3,7l4,2q4,1,7-1l4-5v-6l-6-8v-4l2-4q-1-3-5-2Z" opacity="0" stroke="#000"/><path d="M22.5,14L25,15.5v5l-2,6L16.5,39L16,36.5l1-1v-6l1-1l1-8L22.5,14Z" opacity="0" stroke="#000"/><path d="M50.5,14L53,15.5v7q-1.75.75-1,4L44.5,43L44,34.5l1-1v-5l1-1l1-7L50.5,14Z" opacity="0" stroke="#000"/><path d="M97.5,14l2.5,1.5-1,9L91.5,39L91,36.5l1-1v-6l1-1l1-8L97.5,14Z" opacity="0" stroke="#000"/><path d="M19.5,41q3.33-1.12,2.5,1.5-2,1,0,2v2l3,4v2L22.5,56l-2,1L16,53.5Q14.25,43.75,19.5,41Z" opacity="0" stroke="#000"/><path d="M93.5,42Q98,41,99,43.5q2,2.5,1,8L98,56q-5.5,1.25-7-2.5-1.67-8.67,2.5-11.5Z" opacity="0" stroke="#000"/><path d="M65.5,42q4.17-1.31,2.5,3.5l4,5v2L69.5,56l-3,1L64,56l-2-6.5q1.75-.75,1-4L65.5,42Z" opacity="0" stroke="#000"/><path d="M22.5,7h1.874999L26.5,7l2.441976,1.381367L30,10.5l1,3l.169412,3L31,19l-.790356,2.568656-1.267668,3.431343-2.819485,4.816261L23,34.5q1.830589.568426,6,3.5l2,3l1.5,5q.92-1.75,3.5-1q0-4,0-5l.830589-4.428104L38,31.5L39,28l.830589-3.5l1-3.5l1.018884-2.419194l1.095759-2.601724L43.830589,13.5l2.347401-3L48.330589,8q1.83-1.67,6.169411-1l2.776044,1.381367L59,10.5q1,2,1,4l.000001,2.749999-.491169,2.578638-1.010914,2.671362-1,3.506247-2.015953,6.047857-2.02774,5.083221L51,41.5l-2.472846,3.788077L46,48.5l-2,3v2L45,56l3,1l3.5-1L55,52.5l-.000002-3.5625L55,46.5l1.169413-4l1-2.5L59,37l2.155352-1.417168L63.5,34.5L67,34l4.5,1l2.015818.831123L75.580012,38L77,40l1.076937,2.300037L79.5,46q.92-1.75,3.5-1v-1.5l.169413-3.5L84,35.831123L85,29.5l1.169413-5L88,18.5l2-5l3.169412-4L95.5,8q1.83-1.67,6-1L104,9l1,1.5l1,3v5l-.830588,3.971062L104,25.5l-3,6L98.169413,36L98,36h3.5l2.5.701828l1.169412,1.870067L106,40.5l1,3l.000002,1.5625L107,52.5l.169413,3.799294L101.5,61l-4,2h-6L88,61l-2-2.5-2-4v-2.5h-4.5L78,54.5l-1,2.071896-3.419988,4L71.5,62q-2.5,2-8,1l-4.330587-2L56.5,59l-4,3-3,1h-5L40,61q-2-3-2-3.5L37,52h-4.5l.330589-.5L31,55.5l-2.058024,3.515361L26.5,61l-4,2-3.562501-.000001L16.5,62l-2.838149-1.503942-1.45117-1.18732L11,57.5L9.853674,55.061023l-.711512-2.134537L9,49.5v-2.562501-2.5625-2.1875L9,40.5L9,38v-2.750001l.142162-2.178104c.601492-1.699696.225627-3.903968,1.156729-6.078075.275722-.643806.396484-1.808414.701109-2.493821l.169412-1L12,21l1.116882-2.512981L14,16.5l1.587456-3L17,10.999999L18.937499,9L20.5,8l2-1ZM17.257235,38l3.711786-6.938042L22.169413,29l1-2.5L24,24.5l1.169412-2.028938L26.5,18.999999L26.5,16l-1.330588-1.5L24,14h-1l-1.845016,1.054296L19.5,17L18,20.5l-.742765,1.971062L16.5,25l-.743131,3-.169413,2.5L16,33.5L17,36l3.463141-1M51.5,15l-2.050436,1.713261L48,19l-1.318201,4.227386L46,26l-.830587,3.5-1,3-.5,4.071896L42.945232,40l.885357,2.732628L45.5,41L44,43l3-4.428104L49.169413,34.5l1.5-3L52,27q1.169413-2.5,1-6v-2-3l-1.5-1Zm46-.5L96.169413,16l-2.5,5L92,26.754082l-.330587,5.258205L92,36l4.169413,1L92,39l3.493861-6.987713L97.5,28.5l1.669412-4l1.321053-4.000001v-3.499999l-1.321053-1.945704L97.5,14.5ZM20,41c-2,1.732628-2.676936,1.838327-3.466571,3.232864-1.286424,2.27189-1.601748,5.384901-.945973,9.339032L17,55.5l2.996426.67979L23.169413,55.5L25,52.999999l.169412-3L25,47.071896L24,44q-.830587-1.812501-5-1.5q1-3,1-1.5Zm44,3l-1,2c-.557205,1.356698-.915286,2.850533-1.074242,4.481504-.063446.650985.243655,2.323816.243655,3.018496L64,55.5L67,57l3-1l1.5-2.5L72,51l-.5-2.5L70,46q-2.169411-4-6-2Zm30-2q-5,3-3,12c.815411,1.223117,2.004826,1.947562,3.568245,2.173336C95.561277,56.31674,96.705195,55.758961,98,55.5l1.169412-1.428105L100,52q1-6-1-8-1-3-5-2Z" transform="translate(-.169412 0.000001)" fill="#8a6bf1" stroke="#8a6bf1"/><path d="M122.5,35q4.5-1,5.5,1.5l-2,4-.999999,2.25L126,44.5l3.262498,4.349998l1.55162,3.078106l1.185882,3L132,58.5l-1.185882,2.428104-1.589873,1.993946L127.5,64q-2.17,1.83-7,1l-2.729186-1.235131L117,62.5c-.31051-1.707802-.295615-3.0902.044685-4.147193C117.435011,57.140426,118.25345,56.356157,119.5,56h4.5v-2.5L120.5,49q-3.07,6.93-9,11-3,.5-3.5-1.5l1-3l6-7l2.413972-4.437264L118,40.5l.600221-1.024643.813996-1.389572l1.060661-1.060662.955803-.955803L122.5,35Z" transform="translate(-6.662477-1.928104)" fill="#8a6bf1" stroke="#8a6bf1"/></svg>
